<?xml version="1.0" standalone="no"?>
<!DOCTYPE svg PUBLIC "-//W3C//DTD SVG 20010904//EN"
 "http://www.w3.org/TR/2001/REC-SVG-20010904/DTD/svg10.dtd">
<svg version="1.0" xmlns="http://www.w3.org/2000/svg"
 width="1080.000000pt" height="1078.000000pt" viewBox="0 0 1080.000000 1078.000000"
 preserveAspectRatio="xMidYMid meet">

<g transform="translate(0.000000,1078.000000) scale(0.100000,-0.100000)"
fill="#000000" stroke="none">
<path d="M0 9601 l0 -1178 69 -12 c159 -26 356 -2 484 58 34 16 79 34 100 41
21 7 41 18 43 25 3 7 31 24 62 36 99 40 200 116 226 170 17 34 33 48 230 198
146 110 561 386 689 457 56 32 113 65 127 74 14 10 47 25 73 34 26 9 65 24 85
35 75 37 270 101 369 120 290 58 575 51 773 -18 76 -26 293 -139 365 -190 33
-23 78 -54 100 -69 45 -30 86 -61 195 -145 84 -65 319 -294 365 -356 35 -46
78 -61 177 -61 73 0 296 -26 330 -39 13 -4 55 -14 93 -21 221 -39 605 -191
835 -330 47 -29 111 -65 143 -81 31 -16 65 -36 75 -44 22 -20 107 -80 212
-152 203 -138 364 -281 420 -372 16 -25 65 -79 110 -120 45 -40 93 -92 107
-114 14 -22 29 -45 34 -51 40 -49 88 -116 99 -136 7 -13 17 -29 22 -34 5 -6
40 -74 78 -151 62 -126 67 -141 54 -156 -22 -25 -72 -31 -155 -19 -99 14 -161
30 -180 47 -9 7 -28 39 -44 71 -27 55 -93 156 -178 271 -65 88 -332 355 -471
473 -231 193 -426 317 -643 409 -54 22 -132 56 -174 75 -96 42 -330 110 -432
123 -101 14 -241 14 -309 0 -99 -20 -218 -71 -268 -116 -99 -89 -160 -227
-160 -363 0 -56 4 -81 15 -90 12 -10 15 -7 21 17 24 106 38 152 56 183 41 71
93 131 148 169 121 85 204 111 352 111 69 0 83 -3 128 -31 27 -17 50 -32 50
-34 0 -2 -10 -20 -21 -40 -47 -79 1 -196 131 -326 129 -127 300 -234 489 -306
121 -46 316 -63 373 -32 31 16 58 74 58 123 0 59 -18 68 -62 31 -28 -23 -38
-26 -75 -21 -57 8 -135 48 -190 99 -37 34 -47 39 -61 29 -43 -31 -72 -27 -122
14 -41 35 -39 77 2 82 15 2 38 -4 50 -12 33 -24 36 -21 35 33 -2 58 19 87 69
97 117 22 478 -222 745 -505 359 -379 512 -712 443 -966 -9 -33 -19 -70 -21
-81 -9 -40 221 -218 381 -296 66 -31 90 -38 142 -38 42 0 65 5 74 15 18 21 6
32 -52 45 -29 7 -77 23 -106 36 -86 38 -306 187 -325 220 -9 16 10 121 23 129
5 3 49 -21 97 -53 118 -79 219 -129 312 -153 95 -25 150 -19 194 21 43 39 27
55 -62 64 -79 7 -219 50 -306 94 -33 16 -85 41 -115 55 -30 15 -71 39 -90 55
-31 26 -36 38 -46 103 -6 41 -8 78 -4 83 9 9 135 -29 159 -48 9 -7 52 -10 112
-9 93 2 98 1 113 -22 9 -14 24 -53 32 -87 9 -35 23 -70 31 -80 21 -23 104 -57
171 -69 31 -6 73 -21 92 -33 49 -33 117 -69 170 -91 48 -21 267 -145 359 -203
31 -19 83 -59 116 -89 33 -29 89 -68 125 -86 40 -21 95 -63 145 -111 44 -43
94 -89 112 -103 29 -23 76 -84 128 -167 11 -17 32 -47 46 -66 49 -65 77 -133
85 -211 4 -41 7 -80 5 -88 -7 -35 -173 -264 -250 -344 -53 -56 -163 -148 -236
-197 -27 -19 -56 -40 -63 -47 -7 -7 -17 -13 -21 -13 -4 0 -21 -11 -37 -25 -72
-62 -418 -234 -604 -300 -36 -12 -90 -34 -120 -48 -127 -58 -220 -70 -327 -42
-32 9 -123 27 -203 41 -80 13 -183 32 -230 41 -112 22 -357 22 -456 0 -274
-60 -696 -341 -843 -561 -80 -121 -163 -328 -196 -493 -17 -87 -15 -205 7
-348 20 -137 106 -345 184 -446 24 -31 48 -69 54 -83 8 -23 5 -28 -35 -57 -25
-18 -45 -40 -45 -49 0 -15 34 -49 138 -140 12 -10 22 -26 22 -33 0 -8 -30 -29
-67 -47 -234 -114 -333 -165 -396 -207 -119 -79 -328 -302 -378 -403 -7 -14
-30 -54 -50 -90 -34 -60 -63 -129 -103 -240 -9 -25 -28 -101 -43 -170 -24
-111 -27 -146 -28 -315 0 -201 9 -279 51 -424 25 -90 82 -243 93 -251 3 -3 12
-17 20 -32 l14 -28 1641 0 c1429 1 1638 3 1615 15 -15 8 -29 22 -33 31 -6 14
2 16 66 11 453 -32 521 -31 620 13 26 11 91 30 144 41 117 25 202 56 314 116
111 59 135 78 258 197 110 107 148 158 212 286 22 44 41 80 43 80 1 0 29 9 61
20 82 29 302 85 426 109 134 25 390 55 398 46 8 -8 -22 -34 -183 -162 -139
-110 -197 -164 -363 -332 -154 -157 -312 -349 -376 -458 -6 -10 121 -13 618
-13 l626 0 0 1800 c0 1628 -1 1800 -16 1800 -53 0 -509 -167 -724 -266 -126
-57 -387 -193 -490 -254 -36 -21 -73 -39 -82 -39 -23 -1 -68 60 -68 93 0 26
85 155 163 246 7 8 22 32 32 53 11 21 32 51 47 68 38 41 228 394 283 523 128
308 177 533 177 816 -1 251 -40 427 -145 653 -102 218 -285 432 -502 587 -215
153 -592 298 -848 325 -33 4 -60 12 -63 19 -3 7 23 57 56 112 180 287 256 487
311 814 20 116 23 171 23 390 0 264 -8 347 -55 590 -51 267 -178 612 -285 776
-21 33 -61 96 -89 141 -53 87 -231 307 -324 402 -128 129 -294 246 -440 310
-130 58 -229 82 -381 92 -248 17 -423 -23 -627 -143 -45 -26 -89 -48 -97 -48
-18 0 -23 18 -31 119 -3 41 -13 120 -22 175 -40 251 -211 470 -438 561 l-93
38 -134 -6 c-123 -6 -200 -20 -288 -55 -14 -5 -48 -13 -76 -16 -60 -9 -73 2
-81 64 l-6 40 -2743 0 -2744 0 0 -1179z"/>
<path d="M2580 8404 c-85 -17 -292 -79 -376 -113 -267 -106 -528 -266 -734
-451 -47 -42 -101 -90 -120 -106 -19 -16 -53 -49 -75 -74 -108 -121 -101 -116
-197 -124 -98 -8 -137 3 -176 48 -26 31 -42 30 -59 -5 -30 -58 -5 -137 51
-161 33 -14 120 -15 173 -3 l33 7 -15 -43 c-25 -69 -25 -69 -190 -132 -71 -27
-93 -30 -194 -32 -109 -1 -114 -2 -123 -24 -7 -19 -2 -29 26 -57 33 -33 37
-34 112 -34 55 0 89 5 118 19 23 11 76 36 119 56 79 37 89 38 94 7 5 -34 -9
-49 -90 -94 -86 -48 -179 -78 -262 -86 -85 -7 -103 -46 -35 -77 40 -18 118
-16 158 4 10 5 60 29 112 54 52 26 118 63 145 84 l50 39 7 94 c11 163 65 272
228 459 61 70 243 227 335 288 33 22 85 57 115 77 75 52 310 167 397 195 38
12 83 21 99 19 27 -3 24 -6 -41 -45 -75 -46 -116 -80 -141 -119 -22 -32 -12
-40 33 -26 45 14 49 11 56 -33 9 -52 44 -94 101 -121 58 -27 64 -26 141 20
102 62 239 104 431 132 l112 16 27 54 c23 45 26 61 20 100 -6 42 -5 45 12 36
37 -21 102 -98 122 -145 17 -40 25 -48 43 -45 32 4 35 50 7 122 -37 99 -104
157 -232 198 -50 16 -95 21 -227 23 -91 2 -176 1 -190 -1z m380 -117 c19 -9
26 -22 28 -50 6 -71 -76 -115 -189 -102 -70 8 -109 35 -109 74 0 61 52 89 170
90 42 0 86 -5 100 -12z m-203 -193 c10 -27 -11 -49 -47 -49 -36 0 -57 22 -47
49 4 11 19 16 47 16 28 0 43 -5 47 -16z"/>
<path d="M1472 7087 c-26 -24 -62 -54 -79 -66 -18 -12 -46 -42 -63 -65 -20
-29 -39 -45 -59 -49 -42 -9 -99 -62 -111 -105 -13 -48 -13 -55 4 -77 13 -18
15 -16 35 22 23 46 64 83 92 83 11 0 22 -12 29 -35 6 -19 17 -35 23 -35 7 0
22 33 34 74 13 40 31 83 40 95 18 21 18 21 71 -44 74 -93 88 -86 48 23 -23 62
-13 108 36 153 48 45 44 69 -13 69 -33 0 -48 -8 -87 -43z"/>
<path d="M4323 7037 c-11 -7 -45 -34 -74 -61 -39 -37 -58 -65 -74 -110 -26
-72 -82 -185 -125 -253 -67 -105 -226 -257 -350 -334 -67 -42 -191 -81 -315
-99 -155 -24 -199 -24 -286 -6 -67 14 -227 78 -309 123 -60 33 -155 103 -208
153 -24 22 -56 43 -70 46 -15 3 -39 12 -53 19 -48 26 -171 67 -185 61 -30 -12
-9 -254 40 -446 67 -262 213 -530 428 -785 87 -103 147 -154 274 -233 69 -43
207 -94 259 -96 l50 -1 5 40 c17 119 138 217 323 261 26 6 27 5 27 -32 0 -22
3 -56 6 -76 5 -31 11 -38 30 -38 28 0 37 13 41 60 8 79 108 177 218 215 39 13
82 24 97 25 59 1 74 17 136 154 34 72 64 145 68 161 4 17 16 47 26 69 29 57
54 161 82 345 28 179 34 374 17 544 -6 51 -13 136 -16 190 -7 106 -19 127 -62
104z"/>
<path d="M6028 6614 c-11 -24 -9 -28 25 -57 21 -18 50 -57 65 -87 24 -50 26
-65 26 -177 1 -85 4 -123 12 -123 13 0 41 73 71 179 2 9 7 11 13 5 12 -12 100
-222 100 -239 0 -7 6 -18 14 -24 16 -14 26 4 26 50 0 17 5 29 13 29 19 0 60
-46 94 -104 36 -62 53 -69 53 -23 0 83 -65 191 -137 229 -34 18 -51 36 -76 83
-18 33 -55 82 -83 110 -27 27 -64 71 -82 96 -53 79 -112 102 -134 53z"/>
<path d="M450 5961 c0 -25 -10 -52 -19 -47 -3 2 -5 -35 -3 -82 2 -62 0 -83 -7
-72 -14 19 -13 30 -11 -275 1 -137 2 -272 2 -300 1 -57 -9 -135 -17 -143 -3
-3 -11 9 -17 26 -7 18 -18 32 -24 32 -7 0 -14 10 -16 23 -2 14 -9 21 -20 19
-10 -1 -23 6 -30 18 -7 11 -21 20 -30 20 -10 0 -18 7 -18 16 0 9 -9 27 -20 41
-12 16 -20 41 -20 64 0 28 -4 39 -15 39 -8 0 -15 -6 -15 -12 0 -9 -4 -8 -10 2
-7 11 -12 12 -18 3 -4 -6 -5 29 -4 78 3 54 0 89 -6 89 -5 0 -12 33 -14 74 -3
77 -12 101 -28 76 -7 -10 -10 -11 -10 -2 0 7 -15 12 -40 12 l-40 0 0 -1237 c0
-1197 1 -1236 18 -1220 10 10 34 17 53 17 30 0 44 -11 119 -90 130 -137 152
-122 148 100 -2 69 1 131 5 138 5 6 23 12 42 12 30 0 42 -10 111 -90 43 -50
84 -90 91 -90 9 0 13 19 13 73 0 134 -31 257 -83 329 -22 29 -17 58 9 58 9 0
49 -34 88 -76 67 -73 190 -164 220 -164 23 0 47 48 53 103 8 77 -56 355 -106
462 -15 33 -31 81 -34 107 -4 26 -10 56 -15 65 -9 19 -41 107 -72 203 -72 220
-154 621 -165 815 -4 55 -12 116 -20 135 -8 24 -14 109 -16 267 -2 128 -7 233
-10 233 -3 0 0 23 7 52 17 62 18 104 4 113 -5 3 -10 -3 -10 -14z m-27 -236
c-3 -9 -8 -14 -10 -11 -3 3 -2 9 2 15 9 16 15 13 8 -4z"/>
<path d="M240 5356 c0 -9 5 -16 10 -16 6 0 10 4 10 9 0 6 -4 13 -10 16 -5 3
-10 -1 -10 -9z"/>
<path d="M230 5271 c0 -6 4 -13 10 -16 6 -3 7 1 4 9 -7 18 -14 21 -14 7z"/>
<path d="M650 3430 c0 -19 3 -21 12 -12 9 9 9 15 0 24 -9 9 -12 7 -12 -12z"/>
<path d="M413 3207 c6 -58 14 -68 33 -43 19 26 18 30 -12 63 l-25 28 4 -48z"/>
<path d="M60 3090 c0 -26 -37 -100 -50 -100 -6 0 -10 -31 -10 -70 0 -39 4 -70
10 -70 31 0 190 106 190 127 0 15 -114 133 -127 133 -7 0 -13 -9 -13 -20z"/>
</g>
</svg>
